<?xml version="1.0" encoding="utf-8"?>
<!-- Generator: Adobe Illustrator 17.1.0, SVG Export Plug-In . SVG Version: 6.00 Build 0)  -->
<!DOCTYPE svg PUBLIC "-//W3C//DTD SVG 1.1//EN" "http://www.w3.org/Graphics/SVG/1.1/DTD/svg11.dtd">
<svg version="1.1" id="swimming-pool" xmlns="http://www.w3.org/2000/svg" xmlns:xlink="http://www.w3.org/1999/xlink" x="0px"
	 y="0px" viewBox="0 0 1010 1010" enable-background="new 0 0 1010 1010" xml:space="preserve">
<g>
	<path id="swimming-pool-label" fill="#FFB400" d="M1010,505c0,278.9111-226.0996,505-505,505S0,783.9111,0,505
		C0,226.0996,226.0996,0,505,0S1010,226.0996,1010,505z"/>
	<g id="swimming-pool-swimming-pool">
		<g>
			<path fill="#FFFFFF" d="M591.3154,610.252h-20.209v-31.9356H439.9189v23.5186h-20.1982v-43.7266h151.3857V376.4482H419.7207
				v-68.9716c0-24.1158,19.6231-43.7325,43.7441-43.7325c24.1158,0,43.7325,19.6167,43.7325,43.7325h-20.1978
				c0-12.9756-10.5591-23.5352-23.5347-23.5352c-12.9809,0-23.5459,10.5596-23.5459,23.5352v48.7739h131.1875v-48.7739
				c0-24.1158,19.627-43.7325,43.7481-43.7325c24.1221,0,43.75,19.6167,43.75,43.7325h-20.209
				c0-12.9756-10.5644-23.5352-23.541-23.5352c-12.9746,0-23.5391,10.5596-23.5391,23.5352V610.252L591.3154,610.252z"/>
		</g>
		<g>
			<path fill="#FFFFFF" d="M513.1377,645.3652c-15.2285,0-31.1299-6.2685-47.3823-18.6747
				c-14.6636-11.1787-28.253-15.9345-40.2427-14.1367c-13.6221,2.0166-21.0576,11.9014-21.1289,12.0108
				c-0.4605,0.6474-11.9898,16.4834-33.8584,19.9023c-17.6943,2.8057-36.5654-3.1787-56.0728-17.6992
				c-14.9814-11.1572-28.7241-15.8574-40.8672-13.9512c-13.3647,2.1035-20.4936,11.6162-20.5649,11.7266l-16.4385-11.7491
				c0.4766-0.6679,12.0054-16.5039,33.875-19.9228c17.7481-2.8281,36.5703,3.1777,56.0616,17.6982
				c14.9868,11.1573,28.7241,15.8584,40.8779,13.9522c13.3647-2.1055,20.4936-11.6172,20.5644-11.7276
				c0.5098-0.7002,12.3785-16.9209,34.5713-20.2304c17.6441-2.6406,36.3242,3.4521,55.4756,18.083
				c14.5264,11.0801,27.9785,15.8037,39.9238,14.1806c13.7217-1.9169,21.1739-11.7041,21.4805-12.1201
				c0.46-0.6133,34.1387-43.3545,89.8438-2.1591c39.9238,29.4912,60.8007,3.123,61.667,1.9833
				c0.9755-1.1728,16.9765-19.7919,40.538-20.538c14.8389-0.4375,29.1084,6.1601,42.0616,19.6836l-14.5977,13.9843
				c-8.7783-9.1738-17.8643-13.7422-26.6973-13.4796c-14.5097,0.3829-25.4902,12.9209-25.5996,13.0401
				c0,0.0117-33.6884,42.6972-89.3623,1.5781c-39.957-29.5234-60.8017-3.1338-61.6786-1.9932
				c-0.3066,0.4375-12.1855,16.6455-34.3779,19.9561C518.5459,645.1572,515.8496,645.3652,513.1377,645.3652L513.1377,645.3652z"/>
		</g>
		<g>
			<path fill="#FFFFFF" d="M513.1377,695.8105c-15.2285,0-31.1299-6.2578-47.3823-18.663
				c-14.5323-11.0801-27.9903-15.8702-39.9468-14.1817c-13.7207,1.9286-21.1675,11.7051-21.48,12.1211
				c-0.4106,0.5801-11.9346,16.416-33.8032,19.836c-17.7266,2.7832-36.5713-3.1778-56.0728-17.6885
				c-14.9814-11.167-28.7241-15.8584-40.8672-13.9619c-13.3647,2.1045-20.4936,11.6171-20.5649,11.7265l-16.4385-11.748
				c0.4766-0.669,12.0054-16.5049,33.875-19.9239c17.7481-2.8056,36.5703,3.1788,56.0616,17.6993
				c17.2329,12.8329,32.746,17.0849,46.1054,12.6797c9.9234-3.2881,15.3369-10.4551,15.3926-10.5206
				c0.4541-0.6367,12.3228-16.8447,34.5103-20.1543c17.6879-2.6083,36.3188,3.4522,55.4809,18.0713
				c14.6411,11.1563,28.1699,15.9131,40.2315,14.1377c13.6113-2.039,21.0517-11.9131,21.1288-12.0117
				c0.5039-0.6797,34.1923-43.3984,89.8878-2.2246c39.9238,29.4912,60.8007,3.124,61.667,1.9844
				c0.9755-1.1836,16.9765-19.792,40.538-20.5156c14.8389-0.5274,29.1084,6.1484,42.0616,19.6601l-14.5977,13.9834
				c-8.7783-9.1611-17.8643-13.6758-26.6973-13.457c-14.5097,0.372-25.4902,12.8984-25.5996,13.0195
				c0,0-33.6884,42.7402-89.3623,1.5674c-39.957-29.4922-60.8017-3.124-61.6786-1.9834
				c-0.3164,0.4375-12.1855,16.6465-34.3672,19.9453C518.5459,695.6133,515.8496,695.8105,513.1377,695.8105L513.1377,695.8105z"/>
		</g>
		<g>
			<path fill="#FFFFFF" d="M513.1377,746.2559c-15.2285,0-31.1299-6.2471-47.3823-18.6523
				c-14.5323-11.0908-27.9903-15.8691-39.9517-14.1816c-13.7158,1.9072-21.1626,11.7041-21.4751,12.1212
				c-0.4053,0.5693-11.9346,16.4062-33.8032,19.8359c-17.6943,2.8174-36.5654-3.1787-56.0728-17.71
				c-14.9814-11.1562-28.7627-15.8252-40.8672-13.9394c-13.3647,2.0928-20.4936,11.6162-20.5649,11.7041L236.582,713.707
				c0.482-0.6797,12.0054-16.5038,33.875-19.9344c17.7481-2.795,36.5596,3.1884,56.0616,17.6992
				c14.9814,11.1562,28.7241,15.8467,40.8779,13.9394c13.3647-2.082,20.4936-11.6161,20.5644-11.7041
				c0.5098-0.7236,12.3785-16.9209,34.566-20.2303c17.6494-2.6309,36.3188,3.4404,55.4809,18.0605
				c14.5264,11.0908,27.9785,15.8252,39.9238,14.1924c13.7217-1.918,21.1739-11.7158,21.4805-12.1318
				c0.46-0.5918,34.1387-43.3116,89.8438-2.1485c39.9238,29.502,60.79,3.124,61.667,1.9942
				c0.9755-1.1836,16.9765-19.792,40.538-20.5254c14.8389-0.5811,29.1084,6.1474,42.0616,19.6709l-14.5977,13.9629
				c-8.8115-9.2071-17.7871-13.8204-26.8291-13.4366c-14.4434,0.4385-25.3369,12.8448-25.4473,12.9756
				c-0.0205,0.044-33.6875,42.7852-89.3925,1.6006c-38.7198-28.6152-59.4766-4.7353-61.7227-1.9082
				c-0.2529,0.374-12.1318,16.5713-34.3242,19.8809C518.5459,746.0586,515.8496,746.2559,513.1377,746.2559L513.1377,746.2559z"/>
		</g>
		<g>
			<polygon fill="#FFFFFF" points="580.1475,443.7324 431.3984,443.7324 431.3984,423.5347 580.1475,423.5347 580.1475,443.7324 			
				"/>
		</g>
		<g>
			<polygon fill="#FFFFFF" points="580.1475,511.0215 431.3984,511.0215 431.3984,490.8237 580.1475,490.8237 580.1475,511.0215 			
				"/>
		</g>
		<g>
			<polygon fill="#FFFFFF" points="439.9189,573.9775 419.7207,573.9775 419.7207,366.3496 439.9189,366.3496 439.9189,573.9775 			
				"/>
		</g>
		<g>
			<polygon fill="#FFFFFF" points="591.3154,573.9775 571.1064,573.9775 571.1064,366.3496 591.3154,366.3496 591.3154,573.9775 			
				"/>
		</g>
	</g>
</g>
</svg>
